# xmcd
#
# Track frame offsets:
#	150
#	15685
#	40251
#	65231
#	82031
#	99957
#	119068
#	135459
#
# Disc length: 2129 seconds
# Revision: 0
# Processed by: cddbd v1.5.2PL0 Copyright (c) Steve Scherf et al.
# Submitted via: dBpowerAMP V12.0
#
DISCID=6c084f08
DTITLE=George Grosman - Water and Wine
DYEAR=2010
DGENRE=Blues
TTITLE0=I Got You
TTITLE1=Journey Tonight
TTITLE2=Little Darlin'
TTITLE3=I Cry
TTITLE4=It's My Fault
TTITLE5=Jenny
TTITLE6=Bohemian Blues
TTITLE7=Water and Wine
EXTD=
EXTT0=
EXTT1=
EXTT2=
EXTT3=
EXTT4=
EXTT5=
EXTT6=
EXTT7=
PLAYORDER=
